<svg class="diagram-root" style="background: #f5f6f6" xmlns="http://www.w3.org/2000/svg" xmlns:xlink="http://www.w3.org/1999/xlink"><style>.diagram-root { font-family: "Helvetica Neue", sans-serif; font-size: 12px; } .t { overflow: visible; } .t-bg { y: 40; fill: #fff;   } .th { fill: #005aa0;   } .tht { fill: #fff; font-size: 14px;  } .tf { fill: #323c46; overflow: visible; } .tf.pk { fill: #005aa0; font-weight: bold; } .tf.fk { font-weight: bold; } .ty { fill: #adb1b5; font-weight: normal; text-anchor: end; } .r { fill: transparent; stroke: #c3c3c3; stroke-width: 1; } .l { stroke: 1; } .i { fill: #c2c7ce; stroke: #c2c7ce; } .i.ix { fill: #afb3b6; stroke: #000; } .fa { fill: transparent; overflow: visible; } .fa .bg.hover { fill: #f7f7f7; } .c { cy: 12; r: 4; stroke: #d2d2dc; fill: #d2d2dc; } .hr { fill: transparent; stroke: #323c46; stroke-opacity: 0.035; stroke-width: 13; } .dc { stroke: #fa5a3c; fill: #fa5a3c; } .x { stroke: white; stroke-width: 1; } .hl .th { fill: #1b9bff; } .hl .tht {  } .fhl .bg { fill: #e7f4ff; } .fhls .bg {  } .r.hl { stroke: #1b9bff; } .dim { opacity: 0.25; }</style><g class="drawing-wrapper" transform="translate(-16, 22) scale(1,1)"><g class="rs"><path d="M 360 65 m -1, 0 a 1,1 0 1,0 2,0 a 1,1 0 1,0 -2,0 M 360 65 m -0.5, 0 a 0.5,0.5 0 1,0 1,0 a 0.5,0.5 0 1,0 -1,0  M360 65 L360 65 372 65 M 360 71 m -1, 0 a 1,1 0 1,0 2,0 a 1,1 0 1,0 -2,0 M 360 71 m -0.5, 0 a 0.5,0.5 0 1,0 1,0 a 0.5,0.5 0 1,0 -1,0  M360 71 L360 71 367 65 360 59 M 360 59 m -1, 0 a 1,1 0 1,0 2,0 a 1,1 0 1,0 -2,0 M 360 59 m -0.5, 0 a 0.5,0.5 0 1,0 1,0 a 0.5,0.5 0 1,0 -1,0  M372 65 Q 397.75 65, 423.5 139 T 475 213 M 487 213 m -1, 0 a 1,1 0 1,0 2,0 a 1,1 0 1,0 -2,0 M 487 213 m -0.5, 0 a 0.5,0.5 0 1,0 1,0 a 0.5,0.5 0 1,0 -1,0  M487 213 L487 213 475 213 M481 219 L481 219 481 207" id="h1950675103" class="r"></path><path d="M 38 213 m -1, 0 a 1,1 0 1,0 2,0 a 1,1 0 1,0 -2,0 M 38 213 m -0.5, 0 a 0.5,0.5 0 1,0 1,0 a 0.5,0.5 0 1,0 -1,0  M38 213 L38 213 26 213 M 38 219 m -1, 0 a 1,1 0 1,0 2,0 a 1,1 0 1,0 -2,0 M 38 219 m -0.5, 0 a 0.5,0.5 0 1,0 1,0 a 0.5,0.5 0 1,0 -1,0  M38 219 L38 219 31 213 38 207 M 38 207 m -1, 0 a 1,1 0 1,0 2,0 a 1,1 0 1,0 -2,0 M 38 207 m -0.5, 0 a 0.5,0.5 0 1,0 1,0 a 0.5,0.5 0 1,0 -1,0  M26 213 C -24 213, -121.19999999999999 324, 188 324 M 200 324 m -1, 0 a 1,1 0 1,0 2,0 a 1,1 0 1,0 -2,0 M 200 324 m -0.5, 0 a 0.5,0.5 0 1,0 1,0 a 0.5,0.5 0 1,0 -1,0  M200 324 L200 324 188 324 M 200 330 m -1, 0 a 1,1 0 1,0 2,0 a 1,1 0 1,0 -2,0 M 200 330 m -0.5, 0 a 0.5,0.5 0 1,0 1,0 a 0.5,0.5 0 1,0 -1,0  M200 330 L200 330 193 324 200 318 M 200 318 m -1, 0 a 1,1 0 1,0 2,0 a 1,1 0 1,0 -2,0 M 200 318 m -0.5, 0 a 0.5,0.5 0 1,0 1,0 a 0.5,0.5 0 1,0 -1,0 " id="h1139284389" class="r"></path><path d="M 38 238 m -1, 0 a 1,1 0 1,0 2,0 a 1,1 0 1,0 -2,0 M 38 238 m -0.5, 0 a 0.5,0.5 0 1,0 1,0 a 0.5,0.5 0 1,0 -1,0  M38 238 L38 238 26 238 M 38 244 m -1, 0 a 1,1 0 1,0 2,0 a 1,1 0 1,0 -2,0 M 38 244 m -0.5, 0 a 0.5,0.5 0 1,0 1,0 a 0.5,0.5 0 1,0 -1,0  M38 244 L38 244 31 238 38 232 M 38 232 m -1, 0 a 1,1 0 1,0 2,0 a 1,1 0 1,0 -2,0 M 38 232 m -0.5, 0 a 0.5,0.5 0 1,0 1,0 a 0.5,0.5 0 1,0 -1,0  M26 238 C -24 238, -117 65, 181 65 M 193 65 m -1, 0 a 1,1 0 1,0 2,0 a 1,1 0 1,0 -2,0 M 193 65 m -0.5, 0 a 0.5,0.5 0 1,0 1,0 a 0.5,0.5 0 1,0 -1,0  M193 65 L193 65 181 65 M187 71 L187 71 187 59" id="h1607168654" class="r"></path><path d="M 487 238 m -1, 0 a 1,1 0 1,0 2,0 a 1,1 0 1,0 -2,0 M 487 238 m -0.5, 0 a 0.5,0.5 0 1,0 1,0 a 0.5,0.5 0 1,0 -1,0  M487 238 L487 238 475 238 M 487 244 m -1, 0 a 1,1 0 1,0 2,0 a 1,1 0 1,0 -2,0 M 487 244 m -0.5, 0 a 0.5,0.5 0 1,0 1,0 a 0.5,0.5 0 1,0 -1,0  M487 244 L487 244 480 238 487 232 M 487 232 m -1, 0 a 1,1 0 1,0 2,0 a 1,1 0 1,0 -2,0 M 487 232 m -0.5, 0 a 0.5,0.5 0 1,0 1,0 a 0.5,0.5 0 1,0 -1,0  M475 238 Q 449.5 238, 424 281 T 373 324 M 361 324 m -1, 0 a 1,1 0 1,0 2,0 a 1,1 0 1,0 -2,0 M 361 324 m -0.5, 0 a 0.5,0.5 0 1,0 1,0 a 0.5,0.5 0 1,0 -1,0  M361 324 L361 324 373 324 M367 330 L367 330 367 318" id="h2286254435" class="r"></path><path d="M 503 436 m -1, 0 a 1,1 0 1,0 2,0 a 1,1 0 1,0 -2,0 M 503 436 m -0.5, 0 a 0.5,0.5 0 1,0 1,0 a 0.5,0.5 0 1,0 -1,0  M503 436 L503 436 491 436 M 503 442 m -1, 0 a 1,1 0 1,0 2,0 a 1,1 0 1,0 -2,0 M 503 442 m -0.5, 0 a 0.5,0.5 0 1,0 1,0 a 0.5,0.5 0 1,0 -1,0  M503 442 L503 442 496 436 503 430 M 503 430 m -1, 0 a 1,1 0 1,0 2,0 a 1,1 0 1,0 -2,0 M 503 430 m -0.5, 0 a 0.5,0.5 0 1,0 1,0 a 0.5,0.5 0 1,0 -1,0  M491 436 C 415.4 436, 425 238, 475 238 M 487 238 m -1, 0 a 1,1 0 1,0 2,0 a 1,1 0 1,0 -2,0 M 487 238 m -0.5, 0 a 0.5,0.5 0 1,0 1,0 a 0.5,0.5 0 1,0 -1,0  M487 238 L487 238 475 238 M481 244 L481 244 481 232" id="h1778622336" class="r"></path><path d="M 80 582 m -1, 0 a 1,1 0 1,0 2,0 a 1,1 0 1,0 -2,0 M 80 582 m -0.5, 0 a 0.5,0.5 0 1,0 1,0 a 0.5,0.5 0 1,0 -1,0  M80 582 L80 582 68 582 M 80 588 m -1, 0 a 1,1 0 1,0 2,0 a 1,1 0 1,0 -2,0 M 80 588 m -0.5, 0 a 0.5,0.5 0 1,0 1,0 a 0.5,0.5 0 1,0 -1,0  M80 588 L80 588 73 582 80 576 M 80 576 m -1, 0 a 1,1 0 1,0 2,0 a 1,1 0 1,0 -2,0 M 80 576 m -0.5, 0 a 0.5,0.5 0 1,0 1,0 a 0.5,0.5 0 1,0 -1,0  M68 582 C 18 582, -54 349, 188 349 M 200 349 m -1, 0 a 1,1 0 1,0 2,0 a 1,1 0 1,0 -2,0 M 200 349 m -0.5, 0 a 0.5,0.5 0 1,0 1,0 a 0.5,0.5 0 1,0 -1,0  M200 349 L200 349 188 349 M194 355 L194 355 194 343" id="h217937630" class="r"></path></g><g class="hrs"></g><g class="ts"><svg width="147" height="100" x="38" y="156" id="h1090417462" class="t"><rect height="40" width="147" class="th"></rect><text x="13" y="25" class="tht">dept_emp</text><rect height="60" width="147" class="t-bg" y="40"></rect><text x="13" y="61" class="tf fk">emp_no<tspan x="134" class="ty">INT</tspan></text><text x="13" y="86" class="tf fk">dept_no<tspan x="134" class="ty">VARCHAR</tspan></text></svg><svg width="167" height="100" x="193" y="8" id="h475896179" class="t"><rect height="40" width="167" class="th"></rect><text x="13" y="25" class="tht">departments</text><rect height="60" width="167" class="t-bg" y="40"></rect><text x="13" y="61" class="tf pk">dept_no<tspan x="154" class="ty">VARCHAR</tspan></text><path d="M7,14A2,2 0 0,1 5,12A2,2 0 0,1 7,10A2,2 0 0,1 9,12A2,2 0 0,1 7,14M12.65,10C11.83,7.67 9.61,6 7, 6A6, 6 0 0, 0 1, 12A6, 6 0 0, 0 7, 18C9.61, 18 11.83, 16.33 12.65, 14H17V18H21V14H23V10H12.65Z" class="i pk" transform="translate(78, 48) scale(0.65)"></path><text x="13" y="86" class="tf">dept_name<tspan x="154" class="ty">VARCHAR</tspan></text></svg><svg width="161" height="225" x="200" y="267" id="h1639608377" class="t"><rect height="40" width="161" class="th"></rect><text x="13" y="25" class="tht">employees</text><rect height="185" width="161" class="t-bg" y="40"></rect><text x="13" y="61" class="tf pk">emp_no<tspan x="148" class="ty">INT</tspan></text><path d="M7,14A2,2 0 0,1 5,12A2,2 0 0,1 7,10A2,2 0 0,1 9,12A2,2 0 0,1 7,14M12.65,10C11.83,7.67 9.61,6 7, 6A6, 6 0 0, 0 1, 12A6, 6 0 0, 0 7, 18C9.61, 18 11.83, 16.33 12.65, 14H17V18H21V14H23V10H12.65Z" class="i pk" transform="translate(109, 48) scale(0.65)"></path><text x="13" y="86" class="tf fk">emp_title<tspan x="148" class="ty">VARCHAR</tspan></text><text x="13" y="111" class="tf">birth_date<tspan x="148" class="ty">DATE?</tspan></text><text x="13" y="136" class="tf">first_name<tspan x="148" class="ty">VARCHAR</tspan></text><text x="13" y="161" class="tf">last_name<tspan x="148" class="ty">VARCHAR</tspan></text><text x="13" y="186" class="tf">sex<tspan x="148" class="ty">VARCHAR</tspan></text><text x="13" y="211" class="tf">hire_date<tspan x="148" class="ty">DATE?</tspan></text></svg><svg width="147" height="100" x="487" y="156" id="h1676682957" class="t"><rect height="40" width="147" class="th"></rect><text x="13" y="25" class="tht">dept_manager</text><rect height="60" width="147" class="t-bg" y="40"></rect><text x="13" y="61" class="tf fk">dept_no<tspan x="134" class="ty">VARCHAR</tspan></text><text x="13" y="86" class="tf fk">emp_no<tspan x="134" class="ty">INT</tspan></text></svg><svg width="111" height="100" x="503" y="379" id="h2472833127" class="t"><rect height="40" width="111" class="th"></rect><text x="13" y="25" class="tht">salaries</text><rect height="60" width="111" class="t-bg" y="40"></rect><text x="13" y="61" class="tf fk">emp_no<tspan x="98" class="ty">INT</tspan></text><text x="13" y="86" class="tf">salary<tspan x="98" class="ty">INT</tspan></text></svg><svg width="158" height="100" x="80" y="525" id="h311790747" class="t"><rect height="40" width="158" class="th"></rect><text x="13" y="25" class="tht">titles</text><rect height="60" width="158" class="t-bg" y="40"></rect><text x="13" y="61" class="tf pk">title_id<tspan x="145" class="ty">VARCHAR</tspan></text><path d="M7,14A2,2 0 0,1 5,12A2,2 0 0,1 7,10A2,2 0 0,1 9,12A2,2 0 0,1 7,14M12.65,10C11.83,7.67 9.61,6 7, 6A6, 6 0 0, 0 1, 12A6, 6 0 0, 0 7, 18C9.61, 18 11.83, 16.33 12.65, 14H17V18H21V14H23V10H12.65Z" class="i pk" transform="translate(69, 48) scale(0.65)"></path><text x="13" y="86" class="tf">title<tspan x="145" class="ty">VARCHAR</tspan></text></svg></g></g><text class="qdbd-link" x="10" y="20">www.quickdatabasediagrams.com</text></svg>